<svg width="57" height="57" viewBox="0 0 57 57" fill="none" xmlns="http://www.w3.org/2000/svg">
<path d="M51.0414 44.4322C53.6188 40.8134 55.3024 36.6357 55.9545 32.2411C56.6065 27.8464 56.2085 23.3598 54.7929 19.1486C53.3773 14.9374 50.9844 11.1214 47.8102 8.01296C44.6359 4.90453 40.7706 2.59209 36.5307 1.26499C32.4415 0.00490408 28.1212 -0.319126 23.8897 0.316893C22.4836 0.52732 21.0954 0.844263 19.7373 1.26499H19.7361C15.476 2.59682 11.5939 4.92334 8.41066 8.05227C5.22747 11.1812 2.83455 15.0227 1.42967 19.2594C0.0247923 23.4961 -0.351724 28.0062 0.331238 32.4172C1.0142 36.8281 2.73703 41.0132 5.35737 44.6267C7.9777 48.2401 11.4203 51.1781 15.4007 53.1979C19.3811 55.2176 23.785 56.2612 28.2485 56.2423C32.7119 56.2235 37.1068 55.1427 41.07 53.0893C45.0332 51.0359 48.4508 48.0689 51.0405 44.4335L51.0414 44.4322ZM20.4813 3.00508C20.7831 2.91386 21.089 2.83952 21.3935 2.75936C21.698 2.67921 21.9984 2.58986 22.3046 2.52114C22.557 2.46424 22.8129 2.42571 23.0668 2.3763C23.4648 2.29924 23.8614 2.21542 24.2625 2.15664C24.323 2.14727 24.3844 2.14446 24.4448 2.13602C26.8952 1.79477 29.3812 1.79505 31.8315 2.13686C31.889 2.14492 31.9475 2.14802 32.005 2.15655C32.4104 2.21589 32.8113 2.30046 33.2137 2.37864C33.4628 2.4273 33.7141 2.46489 33.9617 2.52077C34.272 2.59033 34.577 2.68099 34.8845 2.76199C35.1857 2.84139 35.4882 2.9148 35.7866 3.00489C37.4438 4.54278 38.5991 6.54426 39.102 8.74842C39.605 10.9526 39.4321 13.2571 38.6061 15.3616C37.78 17.4661 36.3391 19.2729 34.4711 20.5464C32.6031 21.8199 30.3947 22.5011 28.1339 22.5011C25.8731 22.5011 23.6648 21.8199 21.7968 20.5464C19.9288 19.2729 18.4878 17.4661 17.6618 15.3616C16.8357 13.2571 16.6629 10.9526 17.1658 8.74842C17.6688 6.54426 18.8241 4.54296 20.4813 3.00508ZM16.9844 4.35583C15.7499 6.34341 15.0692 8.62485 15.0128 10.9639C14.9563 13.303 15.5261 15.6146 16.6632 17.6594C17.8004 19.7043 19.4634 21.4079 21.4802 22.5941C23.497 23.7802 25.7942 24.4057 28.1339 24.4057C30.4737 24.4057 32.7709 23.7802 34.7877 22.5941C36.8045 21.4079 38.4675 19.7043 39.6046 17.6594C40.7418 15.6146 41.3116 13.303 41.2551 10.9639C41.1987 8.62485 40.5179 6.34341 39.2835 4.35583C42.6298 5.9241 45.607 8.18171 48.02 10.9807C50.433 13.7798 52.2274 17.057 53.2856 20.5979C54.3438 24.1387 54.6419 27.8631 54.1605 31.5272C53.679 35.1913 52.4288 38.7122 50.4918 41.8595C48.6021 37.4995 45.4789 33.7871 41.5065 31.1793C37.5341 28.5715 32.8859 27.1821 28.134 27.1821C23.3821 27.1821 18.7339 28.5715 14.7615 31.1793C10.7891 33.7871 7.66586 37.4995 5.77621 41.8595C3.83919 38.7122 2.58901 35.1913 2.10755 31.5272C1.62609 27.8631 1.92423 24.1387 2.98243 20.5979C4.04063 17.0571 5.83502 13.7798 8.24802 10.9808C10.661 8.18173 13.6381 5.92411 16.9844 4.35583ZM26.5677 54.3221C26.3896 54.3115 26.2134 54.2891 26.0359 54.2747C25.6947 54.2472 25.3531 54.2225 25.014 54.1818C24.8071 54.1569 24.6031 54.1196 24.3972 54.0898C24.0915 54.0456 23.7847 54.0055 23.4814 53.9506C23.2605 53.9106 23.0428 53.8583 22.8234 53.8127C22.5381 53.7535 22.2515 53.6987 21.9692 53.6302C21.7449 53.5757 21.5242 53.5094 21.3018 53.4491C21.0286 53.3752 20.7542 53.3055 20.4839 53.2228C20.2577 53.1536 20.0356 53.0728 19.8115 52.9978C19.5497 52.91 19.2865 52.8261 19.0276 52.7302C18.8026 52.6468 18.5824 52.5521 18.36 52.463C18.1076 52.3615 17.8537 52.2637 17.6049 52.1544C17.3836 52.0573 17.1672 51.95 16.9487 51.8469C16.7045 51.7316 16.4586 51.6196 16.2181 51.4968C16.0025 51.3868 15.7916 51.267 15.579 51.151C15.3425 51.0221 15.1045 50.8959 14.872 50.7597C14.6629 50.6373 14.4595 50.5057 14.2533 50.3773C14.0245 50.2347 13.7944 50.0945 13.57 49.9449C13.3683 49.8103 13.1721 49.6673 12.974 49.5271C12.7535 49.3711 12.5317 49.2172 12.316 49.0542C12.1223 48.9081 11.9344 48.7542 11.7441 48.6023C11.5324 48.4335 11.3196 48.2653 11.1128 48.0894C10.9279 47.932 10.7488 47.7673 10.5681 47.6047C10.3661 47.4228 10.1631 47.242 9.96655 47.0535C9.78974 46.8842 9.61893 46.7079 9.44661 46.5332C9.25574 46.3398 9.0643 46.1471 8.87905 45.9475C8.7118 45.7671 8.55093 45.5803 8.38818 45.3948C8.20836 45.1895 8.02818 44.9847 7.85436 44.7733C7.69686 44.5817 7.54499 44.3842 7.39302 44.1876C7.27489 44.0352 7.15824 43.8815 7.04305 43.7265C8.64069 39.4209 11.5179 35.7074 15.2881 33.085C19.0582 30.4626 23.5407 29.057 28.1332 29.057C32.7257 29.057 37.2082 30.4626 40.9783 33.085C44.7485 35.7074 47.6257 39.4209 49.2233 43.7265C49.1094 43.8803 48.9938 44.0325 48.8765 44.1832C48.7221 44.3823 48.5686 44.5825 48.409 44.7765C48.2382 44.9843 48.0611 45.1855 47.8846 45.3872C47.7189 45.5765 47.5543 45.767 47.3837 45.951C47.2022 46.1468 47.0144 46.3354 46.8275 46.5251C46.6515 46.7033 46.4769 46.8837 46.2963 47.0568C46.1042 47.2407 45.9058 47.4172 45.7086 47.5949C45.5231 47.7621 45.3394 47.9311 45.1494 48.0926C44.9477 48.2644 44.7398 48.428 44.5333 48.5932C44.3387 48.7488 44.1459 48.9069 43.9472 49.0568C43.7362 49.2161 43.5195 49.3661 43.304 49.519C43.1013 49.6626 42.9004 49.8089 42.6937 49.9466C42.4735 50.0936 42.2476 50.2311 42.0232 50.371C41.8135 50.5023 41.6056 50.636 41.3923 50.761C41.1636 50.8948 40.9296 51.0189 40.697 51.1453C40.4806 51.2635 40.2657 51.3852 40.0465 51.4973C39.8097 51.618 39.5676 51.7283 39.3273 51.8418C39.1052 51.9468 38.8851 52.0558 38.66 52.1545C38.4139 52.2625 38.1632 52.3593 37.9131 52.4597C37.6881 52.5503 37.4655 52.6456 37.2381 52.7299C36.9803 52.8254 36.718 52.909 36.4571 52.9965C36.2321 53.072 36.0095 53.1529 35.7821 53.2223C35.5134 53.3044 35.2405 53.3737 34.969 53.4473C34.7447 53.508 34.5223 53.5749 34.2962 53.6298C34.0149 53.698 33.7304 53.7523 33.4468 53.8113C33.2259 53.8571 33.0069 53.9098 32.7846 53.95C32.4814 54.005 32.1746 54.045 31.8688 54.0893C31.6625 54.1191 31.4589 54.1563 31.252 54.1812C30.9134 54.222 30.5718 54.2469 30.2301 54.2741C30.0526 54.2885 29.8764 54.3109 29.6983 54.3216C29.1797 54.3533 28.6582 54.3693 28.134 54.3697C27.6097 54.37 27.0876 54.3542 26.5677 54.3221Z" fill="white"/>
</svg>
