<svg width="60" height="60" viewBox="0 0 60 60" fill="none" xmlns="http://www.w3.org/2000/svg">
<path d="M29.6 2.3999C14.36 2.3999 2 14.7599 2 29.9999C2 45.2399 14.36 57.5999 29.6 57.5999C44.84 57.5999 57.2 45.2399 57.2 29.9999C57.2 14.7599 44.84 2.3999 29.6 2.3999ZM29.6 56.3999C15.02 56.3999 3.2 44.5799 3.2 29.9999C3.2 15.4199 15.02 3.5999 29.6 3.5999C44.18 3.5999 56 15.4199 56 29.9999C56 44.5799 44.18 56.3999 29.6 56.3999Z" fill="white"/>
<path d="M47.96 18.7798C47.96 18.7198 47.96 18.6598 47.96 18.6598C47.96 18.5998 47.9 18.5998 47.9 18.5398C47.9 18.5398 47.9 18.4798 47.84 18.4798C47.78 18.4198 47.72 18.4198 47.66 18.3598C47.66 18.3598 47.66 18.3598 47.6 18.3598C47.54 18.3598 47.48 18.2998 47.42 18.2998H11.72C11.66 18.2998 11.54 18.2998 11.48 18.3598C11.48 18.3598 11.48 18.3598 11.42 18.3598C11.36 18.3598 11.3 18.4198 11.24 18.4798C11.24 18.4798 11.24 18.5398 11.18 18.5398C11.12 18.5998 11.12 18.5998 11.12 18.6598C11.12 18.7198 11.12 18.7798 11.12 18.7798V18.8398V41.2798C11.12 41.6398 11.36 41.8798 11.72 41.8798H47.3C47.66 41.8798 47.9 41.6398 47.9 41.2798V18.8998C47.96 18.8398 47.96 18.8398 47.96 18.7798ZM45.86 19.4998L29.54 35.2798L13.22 19.4998H45.86ZM12.32 40.7398V20.3398L29.12 36.5998C29.24 36.7198 29.36 36.7798 29.54 36.7798C29.72 36.7798 29.84 36.7198 29.96 36.5998L46.76 20.3398V40.7398H12.32Z" fill="white"/>
</svg>
