<svg width="60" height="60" viewBox="0 0 60 60" fill="none" xmlns="http://www.w3.org/2000/svg">
<path fill-rule="evenodd" clip-rule="evenodd" d="M30 0C13.433 0 0 13.7686 0 30.765C0 44.3595 8.59821 55.878 20.5179 59.9496C22.0179 60.2309 22.567 59.2799 22.567 58.4629C22.567 57.7263 22.5402 55.7976 22.5268 53.226C14.183 55.0877 12.4152 49.1008 12.4152 49.1008C11.0491 45.5515 9.08036 44.6006 9.08036 44.6006C6.36161 42.6853 9.28125 42.7255 9.28125 42.7255C12.2946 42.9398 13.875 45.8997 13.875 45.8997C16.5536 50.6009 20.8929 49.2481 22.6071 48.4579C22.875 46.4757 23.6518 45.1095 24.5089 44.3461C17.8527 43.5693 10.8482 40.9307 10.8482 29.1444C10.8482 25.7826 12.0134 23.0369 13.9286 20.894C13.6205 20.1171 12.5893 16.983 14.2232 12.7507C14.2232 12.7507 16.7411 11.9203 22.4732 15.8982C24.8705 15.2151 27.4286 14.8802 29.9866 14.8669C32.5312 14.8802 35.1027 15.2151 37.5 15.8982C43.2321 11.9203 45.7366 12.7507 45.7366 12.7507C47.3705 16.983 46.3393 20.1171 46.0312 20.894C47.9464 23.0503 49.1116 25.796 49.1116 29.1444C49.1116 40.9575 42.0937 43.5559 35.4107 44.3193C36.4821 45.2702 37.4464 47.1453 37.4464 50.0116C37.4464 54.1234 37.4062 57.445 37.4062 58.4495C37.4062 59.2665 37.942 60.2309 39.4688 59.9228C51.4152 55.8646 60 44.3461 60 30.765C60 13.7686 46.567 0 30 0Z" fill="black"/>
</svg>
