<svg width="53" height="53" viewBox="0 0 53 53" fill="none" xmlns="http://www.w3.org/2000/svg">
<path d="M26.25 1.875C29.5312 1.875 32.7187 2.53125 35.7187 3.83203C38.625 5.08594 41.2266 6.89062 43.4648 9.1875C45.7031 11.4844 47.4727 14.168 48.7031 17.1445C49.9805 20.2383 50.625 23.5195 50.625 26.9062C50.625 32.2734 48.9961 37.3945 45.9141 41.707C44.4375 43.7813 42.6562 45.5977 40.6406 47.1211C38.7891 48.5156 36.7734 49.6172 34.6406 50.4258C34.6406 50.2031 34.6406 49.9453 34.6406 49.6641C34.6523 48.2695 34.6641 46.1719 34.6641 43.7578C34.6641 42.3047 34.4297 41.1211 34.0898 40.1836C38.4492 39.2109 44.8711 36.2344 44.8711 25.4883C44.8711 22.6055 44.0391 20.0391 42.3867 17.8594C42.75 16.3477 43.0313 13.6875 41.7891 10.4766L41.4727 9.64453L40.6289 9.36328C40.4531 9.30469 40.0664 9.21094 39.457 9.21094C38.1094 9.21094 35.8359 9.66797 32.4844 11.8594C30.4922 11.3672 28.4063 11.0859 26.2617 11.0859H26.25H26.2383C24.0937 11.0859 21.9961 11.3672 20.0156 11.8594C16.6641 9.66797 14.3906 9.19922 13.043 9.19922C12.4336 9.19922 12.0469 9.30469 11.8711 9.36328L11.0273 9.64453L10.7109 10.4766C9.46875 13.6992 9.75 16.3594 10.1133 17.8594C8.46094 20.0508 7.62891 22.6172 7.62891 25.4883C7.62891 31.3008 9.50391 34.8516 11.918 37.0312C10.9687 36.2578 9.73828 35.6133 8.26172 35.5078H8.20312H8.14453H8.10937C6.57422 35.5078 5.49609 36.1406 5.15625 37.2305C4.60547 38.9648 6.30469 40.1602 6.86719 40.5586L6.92578 40.6289L7.10156 40.6992C7.28906 40.8164 8.28516 41.5195 9.08203 43.5703C9.31641 44.2969 9.82031 45.2695 10.6758 46.1719C9.14062 44.8594 7.76953 43.3594 6.58594 41.707C3.50391 37.4063 1.875 32.2852 1.875 26.918C1.875 23.5312 2.51953 20.25 3.79688 17.1562C5.02734 14.168 6.78516 11.4961 9.03516 9.19922C11.2734 6.90234 13.8867 5.09766 16.7812 3.84375C19.7812 2.54297 22.9688 1.875 26.25 1.875ZM12.2695 37.3477C14.2383 39 16.5234 39.7969 18.3984 40.2188C18.3047 40.4766 18.2227 40.7461 18.1523 41.0273C17.7539 41.1445 17.2734 41.2383 16.7812 41.2383C15.5039 41.2383 14.5547 40.6055 13.7813 39.2578C13.5 38.7188 12.9844 38.0039 12.2695 37.3477ZM12.7031 47.7305C13.8516 48.3516 15.293 48.7617 17.0625 48.7617C17.3203 48.7617 17.5781 48.75 17.8477 48.7383C17.8477 49.0664 17.8477 49.3828 17.8594 49.6641C17.8594 49.9453 17.8594 50.2031 17.8711 50.4258C16.043 49.7461 14.3203 48.8438 12.7031 47.7305ZM26.25 0C11.7539 0 0 12.0586 0 26.918C0 38.8125 7.52344 48.8906 17.9531 52.4531C18.1172 52.4883 18.2578 52.5 18.3984 52.5C19.3711 52.5 19.7461 51.7852 19.7461 51.1641C19.7461 50.5195 19.7227 48.832 19.7109 46.582C18.7266 46.8047 17.8477 46.8984 17.0625 46.8984C12.0117 46.8984 10.8633 42.9727 10.8633 42.9727C9.66797 39.8672 7.94531 39.0117 7.94531 39.0117C5.66016 37.4063 7.93359 37.3477 8.10937 37.3477C8.12109 37.3477 8.12109 37.3477 8.12109 37.3477C10.7578 37.582 12.1406 40.1484 12.1406 40.1484C13.4531 42.4453 15.2109 43.1016 16.7812 43.1016C18.0117 43.1016 19.125 42.7031 19.7813 42.3984C20.0156 40.6641 20.6953 39.4805 21.4453 38.8008C15.6211 38.1211 9.49219 35.8125 9.49219 25.5C9.49219 22.5586 10.5117 20.1562 12.1875 18.2812C11.918 17.6016 11.0156 14.8594 12.4453 11.1562C12.4453 11.1562 12.6328 11.0977 13.0312 11.0977C13.9805 11.0977 16.125 11.4609 19.6641 13.9219C21.7617 13.3242 24 13.0312 26.2383 13.0195C28.4648 13.0312 30.7148 13.3242 32.8125 13.9219C36.3516 11.4609 38.4961 11.0977 39.4453 11.0977C39.8438 11.0977 40.0313 11.1562 40.0313 11.1562C41.4609 14.8594 40.5586 17.6016 40.2891 18.2812C41.9648 20.168 42.9844 22.5703 42.9844 25.5C42.9844 35.8359 36.8438 38.1094 30.9961 38.7773C31.9336 39.6094 32.7773 41.25 32.7773 43.7578C32.7773 47.3555 32.7422 50.2617 32.7422 51.1406C32.7422 51.7734 33.1055 52.4883 34.0781 52.4883C34.2187 52.4883 34.3828 52.4766 34.5469 52.4414C44.9883 48.8906 52.5 38.8008 52.5 26.918C52.5 12.0586 40.7461 0 26.25 0Z" fill="white"/>
</svg>
