<svg width="40" height="40" viewBox="0 0 40 40" fill="none" xmlns="http://www.w3.org/2000/svg">
<path d="M36.6667 20.0002C36.6667 29.2049 29.2048 36.6668 20 36.6668M36.6667 20.0002C36.6667 10.7954 29.2048 3.3335 20 3.3335M36.6667 20.0002H3.33334M20 36.6668C10.7953 36.6668 3.33334 29.2049 3.33334 20.0002M20 36.6668C24.1688 32.1029 26.5379 26.1801 26.6667 20.0002C26.5379 13.8202 24.1688 7.89742 20 3.3335M20 36.6668C15.8312 32.1029 13.4621 26.1801 13.3333 20.0002C13.4621 13.8202 15.8312 7.89742 20 3.3335M3.33334 20.0002C3.33334 10.7954 10.7953 3.3335 20 3.3335" stroke="white" stroke-width="4" stroke-linecap="round" stroke-linejoin="round"/>
</svg>
