<svg width="57" height="57" viewBox="0 0 57 57" fill="none" xmlns="http://www.w3.org/2000/svg">
<path d="M47.9988 8.23594C42.9074 3.14461 35.8862 0 28.1175 0C20.3483 0 13.327 3.14461 8.23664 8.23582C3.14461 13.3267 0 20.3482 0 28.1169C0 35.8855 3.14461 42.9073 8.23664 47.9982C13.327 53.0897 20.3483 56.2343 28.1175 56.2343C35.8862 56.2343 42.9074 53.0897 47.9988 47.9982C53.0898 42.9073 56.2344 35.8855 56.2344 28.1169C56.2344 20.3483 53.0899 13.3268 47.9988 8.23594ZM46.4418 46.4413C41.7551 51.1436 35.2795 54.0391 28.1175 54.0391C20.9549 54.0391 14.4793 51.1436 9.79266 46.4413C5.09145 41.7557 2.19527 35.2789 2.19527 28.117C2.19527 20.9556 5.09145 14.4791 9.79266 9.79301C14.4793 5.09098 20.9549 2.19539 28.1175 2.19539C35.2795 2.19539 41.7551 5.09098 46.4418 9.79301C51.1434 14.4791 54.0391 20.9556 54.0391 28.117C54.0391 35.2789 51.1434 41.7557 46.4418 46.4413Z" fill="#FFFBFB"/>
<path d="M15.1138 28.3817V40.6562H21.3247V27.3696V23.6641H15.1138V28.3817Z" fill="#FFFBFB"/>
<path d="M34.4849 23.7421C31.947 23.7421 30.2346 24.8359 29.5187 25.8906H29.2935V23.6641H24.7232V27.136V40.6562H29.8794V32.4143C29.8794 30.203 30.0922 28.0707 32.8018 28.0707C35.5255 28.0707 35.5045 30.5923 35.5045 32.5697V40.6562H40.6608V31.5111C40.6608 30.6388 40.6867 29.7596 40.5935 29.012C40.2042 25.8051 38.8133 23.7421 34.4849 23.7421Z" fill="#FFFBFB"/>
<path d="M18.387 15.4282C16.7523 15.4282 15.4287 16.7516 15.4287 18.3865C15.4287 20.0215 16.7523 21.3446 18.387 21.3446C20.0217 21.3446 21.3448 20.0215 21.3448 18.3865C21.3447 16.7516 20.0216 15.4282 18.387 15.4282Z" fill="#FFFBFB"/>
</svg>
