<svg width="48" height="48" viewBox="0 0 48 48" fill="none" xmlns="http://www.w3.org/2000/svg">
<path d="M42 25.58C41.6854 28.9844 40.4077 32.2288 38.3165 34.9336C36.2253 37.6383 33.407 39.6916 30.1914 40.8531C26.9758 42.0146 23.496 42.2362 20.159 41.4922C16.822 40.7481 13.766 39.0691 11.3484 36.6516C8.9309 34.234 7.25186 31.178 6.5078 27.841C5.76374 24.504 5.98542 21.0242 7.14691 17.8086C8.30839 14.593 10.3616 11.7747 13.0664 9.68351C15.7712 7.59228 19.0156 6.31461 22.42 6C20.4268 8.69653 19.4677 12.0189 19.717 15.3628C19.9664 18.7068 21.4077 21.8501 23.7788 24.2212C26.1499 26.5923 29.2932 28.0336 32.6372 28.2829C35.9811 28.5323 39.3034 27.5732 42 25.58Z" stroke="white" stroke-width="4" stroke-linecap="round" stroke-linejoin="round"/>
</svg>
