<svg width="40" height="40" viewBox="0 0 40 40" fill="none" xmlns="http://www.w3.org/2000/svg">
<path d="M20 9.43262C10.1704 9.43262 2.00003 15.7302 2 23.8926C2 32.0496 10.1637 38.4863 20 38.4863C29.8296 38.4863 38 32.1888 38 24.0264C37.9997 15.8696 29.8361 9.43262 20 9.43262ZM20 34.3252C20.2398 34.3252 20.4663 34.3991 20.6201 34.5127C20.7653 34.6199 20.833 34.7491 20.833 34.8994V36.2412C20.833 36.4409 20.7654 36.5604 20.666 36.6406C20.5527 36.7319 20.3429 36.8154 20 36.8154C19.38 36.8154 19.167 36.4431 19.167 36.2412V34.8994C19.167 34.7491 19.2347 34.6199 19.3799 34.5127C19.5337 34.3991 19.7602 34.3252 20 34.3252ZM10.6084 31.1201C10.8687 31.107 11.0647 31.1636 11.1865 31.2617C11.327 31.3749 11.3749 31.5039 11.375 31.6104C11.375 31.7169 11.3272 31.8467 11.1865 31.96L10.0195 32.8994C9.8368 33.0465 9.67067 33.0566 9.33301 33.0566C9.15221 33.0566 9.04563 33.0545 8.96582 33.0361C8.94022 33.0302 8.92769 33.024 8.92285 33.0215L8.87988 32.9521L8.81348 32.8994L8.72461 32.8115C8.65209 32.7227 8.6251 32.6305 8.625 32.5508C8.625 32.4443 8.67281 32.3145 8.81348 32.2012L9.93359 31.2988C10.1177 31.206 10.3646 31.1324 10.6084 31.1201ZM29.417 31.0703C29.6561 31.0704 29.8729 31.1437 30.0195 31.2617L31.1865 32.2012C31.3272 32.3145 31.375 32.4443 31.375 32.5508C31.3749 32.6572 31.327 32.7863 31.1865 32.8994C31.1588 32.9217 31.0883 32.9644 30.9824 33.001C30.8802 33.0362 30.769 33.0566 30.667 33.0566C30.3293 33.0566 30.1632 33.0465 29.9805 32.8994L28.8135 31.96C28.6728 31.8467 28.625 31.7169 28.625 31.6104C28.6251 31.5039 28.673 31.3749 28.8135 31.2617C28.9601 31.1436 29.1777 31.0703 29.417 31.0703ZM26.1406 18.2461H26.1416L26.1465 18.2422C26.2937 18.1237 26.5174 18.0462 26.7754 18.0332C27.0105 18.0214 27.2292 18.0673 27.3848 18.1387C27.4994 18.2445 27.5419 18.3586 27.542 18.4561C27.542 18.5622 27.4939 18.6907 27.3545 18.8037L21.8594 23.0957L21.6035 23.2959L21.6816 23.6104C21.8031 24.0994 21.696 24.5691 21.1865 24.9795C20.3696 25.6374 19.1304 25.6374 18.3135 24.9795C17.9105 24.6549 17.7501 24.2867 17.75 23.96C17.75 23.6408 17.9028 23.2819 18.2852 22.9629C18.8326 22.6418 19.5319 22.5253 20.2539 22.6416L20.4688 22.6758L20.6406 22.542L26.1406 18.2461ZM5 23.5869H6.66699C6.90652 23.587 7.13237 23.661 7.28613 23.7744C7.43138 23.8816 7.5 24.0108 7.5 24.1611C7.49998 24.3115 7.43136 24.4406 7.28613 24.5479C7.13237 24.6612 6.90649 24.7353 6.66699 24.7354H5C4.65713 24.7354 4.4473 24.6518 4.33398 24.5605C4.23446 24.4803 4.16701 24.361 4.16699 24.1611C4.16699 24.0108 4.23471 23.8816 4.37988 23.7744C4.53372 23.6608 4.76019 23.5869 5 23.5869ZM33.333 23.5869H35C35.2398 23.5869 35.4663 23.6608 35.6201 23.7744C35.7653 23.8816 35.833 24.0108 35.833 24.1611C35.833 24.3115 35.7653 24.4406 35.6201 24.5479C35.4663 24.6614 35.2398 24.7354 35 24.7354H33.333C32.9906 24.7353 32.7813 24.6517 32.668 24.5605C32.5684 24.4803 32.5 24.3611 32.5 24.1611C32.5 24.0108 32.5686 23.8816 32.7139 23.7744C32.8676 23.661 33.0935 23.587 33.333 23.5869ZM9.41699 14.9629C9.6522 14.963 9.86527 15.0348 10.0117 15.1494L10.9912 16.0693L11.0049 16.082L11.0195 16.0938C11.1602 16.207 11.208 16.3368 11.208 16.4434C11.2079 16.5498 11.16 16.6788 11.0195 16.792C10.9917 16.8143 10.9219 16.8571 10.8164 16.8936C10.7139 16.9289 10.6023 16.9492 10.5 16.9492C10.3977 16.9492 10.2861 16.9289 10.1836 16.8936C10.0781 16.8571 10.0083 16.8143 9.98047 16.792L8.81348 15.8525C8.67281 15.7392 8.625 15.6095 8.625 15.5029C8.62513 15.3965 8.67299 15.2674 8.81348 15.1543C8.96014 15.0362 9.17768 14.9629 9.41699 14.9629ZM30.5625 14.9629C30.7877 14.9629 30.9099 15.0377 30.9482 15.084L30.9805 15.123L31.0195 15.1543C31.16 15.2674 31.2079 15.3965 31.208 15.5029C31.208 15.6095 31.1602 15.7392 31.0195 15.8525L29.8535 16.792C29.8258 16.8143 29.7553 16.857 29.6494 16.8936C29.547 16.9289 29.4352 16.9492 29.333 16.9492C29.231 16.9492 29.1198 16.9288 29.0176 16.8936C28.9117 16.857 28.8412 16.8143 28.8135 16.792C28.673 16.6788 28.6251 16.5498 28.625 16.4434C28.625 16.3368 28.6728 16.207 28.8135 16.0938L29.9805 15.1543C30.1297 15.0342 30.3479 14.9629 30.5625 14.9629ZM20 11.2383C20.62 11.2383 20.833 11.6106 20.833 11.8125V13.1543C20.833 13.3046 20.7653 13.4338 20.6201 13.541C20.4663 13.6546 20.2398 13.7285 20 13.7285C19.7602 13.7285 19.5337 13.6546 19.3799 13.541C19.2347 13.4338 19.167 13.3046 19.167 13.1543V11.8125C19.167 11.6128 19.2346 11.4933 19.334 11.4131C19.4473 11.3218 19.6571 11.2383 20 11.2383ZM20 1.64746C18.6637 1.64746 17.5 2.44743 17.5 3.75879C17.5003 4.91186 18.635 5.86914 20 5.86914C21.365 5.86914 22.4997 4.91186 22.5 3.75879C22.5 2.44743 21.3363 1.64746 20 1.64746ZM19.333 6.70508L18.9316 6.62402C17.1053 6.25616 16 4.94028 16 3.62402C16.0001 1.98242 17.6697 0.5 20 0.5C22.2869 0.5 24.0089 2.08387 24.165 3.6416C24.1539 4.93597 22.9055 6.25698 21.2256 6.62598L20.833 6.71191V8.39453L21.3076 8.41895C31.4785 8.94752 39.5 15.7948 39.5 23.8926C39.5 32.3799 30.8303 39.5 20 39.5C9.16966 39.5 0.5 32.3799 0.5 23.8926C0.500026 15.7972 8.51844 8.94787 18.8584 8.41895L19.333 8.39453V6.70508Z" fill="white" stroke="white"/>
</svg>
