<svg width="60" height="60" viewBox="0 0 60 60" fill="none" xmlns="http://www.w3.org/2000/svg">
<g clip-path="url(#clip0_141_13)">
<path fill-rule="evenodd" clip-rule="evenodd" d="M31.0243 26.8667C27.4457 30.1599 23.9526 33.2771 23.9526 33.2771C23.4694 33.7077 23.4282 34.4483 23.8588 34.9314C24.2894 35.4135 25.0301 35.4558 25.5132 35.0252C25.5132 35.0252 34.6637 26.8574 38.5709 22.9502C39.1674 22.3547 39.3466 21.8984 39.3785 21.7089C39.4599 21.2268 39.291 20.8868 39.0479 20.6396C38.8697 20.4573 38.6049 20.2842 38.199 20.2667C38.0002 20.2585 37.5583 20.3357 36.9629 20.6159C33.5573 22.2177 20.0154 31.2395 20.0154 31.2395C19.4767 31.598 19.3315 32.3263 19.6899 32.864C20.0494 33.4027 20.7777 33.548 21.3154 33.1895C21.3154 33.1895 26.3558 29.8272 31.0243 26.8667Z" fill="white"/>
<path fill-rule="evenodd" clip-rule="evenodd" d="M30 2.57812C14.865 2.57812 2.57812 14.865 2.57812 30C2.57812 45.135 14.865 57.4219 30 57.4219C45.135 57.4219 57.4219 45.135 57.4219 30C57.4219 14.865 45.135 2.57812 30 2.57812ZM30 4.92188C43.8412 4.92188 55.0781 16.1588 55.0781 30C55.0781 43.8412 43.8412 55.0781 30 55.0781C16.1588 55.0781 4.92188 43.8412 4.92188 30C4.92188 16.1588 16.1588 4.92188 30 4.92188Z" fill="white"/>
<path fill-rule="evenodd" clip-rule="evenodd" d="M19.725 33.1422L22.2323 41.2987C22.2415 41.3285 22.2518 41.3584 22.2632 41.3873C22.53 42.0568 22.7978 42.4462 22.9894 42.6306C23.3355 42.9644 23.6909 43.0416 23.9855 43.0334C24.3996 43.021 25.0671 42.7738 25.3319 41.7921C25.3504 41.72 25.3638 41.6469 25.369 41.5727L25.748 36.3521L35.6526 43.637C36.6704 44.4096 37.5851 44.5734 38.2784 44.3622C38.9933 44.1438 39.6855 43.4887 40.0131 42.0939C40.0151 42.0857 40.0172 42.0774 40.0182 42.0692L44.9072 19.0327C45.1987 17.8059 45.0349 16.8891 44.6362 16.3534C44.1737 15.7302 43.2992 15.3068 41.8117 15.7085C41.7715 15.7188 41.7313 15.7322 41.6932 15.7477L12.9777 26.8843C12.9334 26.9018 12.8901 26.9224 12.8479 26.944C11.4871 27.6744 11.1843 28.5098 11.1802 29.0506C11.175 29.7789 11.6859 30.4835 12.5533 30.8317C12.579 30.842 12.6048 30.8523 12.6316 30.8605L19.725 33.1422ZM42.7037 17.9181C42.6924 18.085 42.6698 18.3116 42.6244 18.5022C42.6213 18.5125 42.6193 18.5228 42.6172 18.5331L37.7293 41.5665C37.6881 41.7365 37.6067 41.9312 37.5521 42.0527C37.4223 41.9888 37.2153 41.8807 37.0659 41.7663C37.0597 41.7622 37.0546 41.7581 37.0484 41.754L25.4267 33.2071C25.0836 32.9547 24.6293 32.9084 24.242 33.0866C23.8547 33.2658 23.5951 33.6408 23.5642 34.0662L23.353 36.9681L21.7852 31.87C21.6729 31.5043 21.3886 31.2159 21.0239 31.0985L14.2313 28.9126L42.474 17.9583C42.5503 17.9408 42.6306 17.9274 42.7037 17.9181Z" fill="white"/>
<path fill-rule="evenodd" clip-rule="evenodd" d="M24.754 42.7415L29.8489 38.3418C30.3382 37.9195 30.3928 37.1788 29.9705 36.6895C29.5471 36.2002 28.8065 36.1456 28.3172 36.568L23.2232 40.9676C22.7329 41.3899 22.6793 42.1306 23.1017 42.6199C23.524 43.1102 24.2647 43.1638 24.754 42.7415Z" fill="white"/>
</g>
<defs>
<clipPath id="clip0_141_13">
<rect width="60" height="60" fill="white"/>
</clipPath>
</defs>
</svg>
