<svg width="60" height="60" viewBox="0 0 60 60" fill="none" xmlns="http://www.w3.org/2000/svg">
<g clip-path="url(#clip0_16_305)">
<path fill-rule="evenodd" clip-rule="evenodd" d="M31.0243 26.8667C27.4456 30.1599 23.9525 33.2771 23.9525 33.2771C23.4694 33.7077 23.4282 34.4483 23.8588 34.9314C24.2894 35.4135 25.03 35.4558 25.5131 35.0252C25.5131 35.0252 34.6637 26.8574 38.5709 22.9502C39.1673 22.3547 39.3466 21.8984 39.3785 21.7089C39.4599 21.2268 39.2909 20.8868 39.0478 20.6396C38.8696 20.4573 38.6049 20.2842 38.199 20.2667C38.0002 20.2585 37.5583 20.3357 36.9629 20.6159C33.5573 22.2177 20.0154 31.2395 20.0154 31.2395C19.4767 31.598 19.3314 32.3263 19.6899 32.864C20.0494 33.4027 20.7777 33.548 21.3154 33.1895C21.3154 33.1895 26.3558 29.8272 31.0243 26.8667Z" fill="black"/>
<path fill-rule="evenodd" clip-rule="evenodd" d="M30 2.57812C14.865 2.57812 2.57812 14.865 2.57812 30C2.57812 45.135 14.865 57.4219 30 57.4219C45.135 57.4219 57.4219 45.135 57.4219 30C57.4219 14.865 45.135 2.57812 30 2.57812ZM30 4.92188C43.8413 4.92188 55.0781 16.1588 55.0781 30C55.0781 43.8413 43.8413 55.0781 30 55.0781C16.1588 55.0781 4.92188 43.8413 4.92188 30C4.92188 16.1588 16.1588 4.92188 30 4.92188Z" fill="black"/>
<path fill-rule="evenodd" clip-rule="evenodd" d="M19.725 33.1422L22.2323 41.2987C22.2416 41.3285 22.2519 41.3584 22.2632 41.3873C22.53 42.0568 22.7978 42.4462 22.9894 42.6306C23.3356 42.9644 23.691 43.0416 23.9856 43.0334C24.3997 43.021 25.0672 42.7738 25.3319 41.7921C25.3505 41.72 25.3639 41.6469 25.369 41.5727L25.7481 36.3521L35.6527 43.637C36.6704 44.4096 37.5852 44.5734 38.2784 44.3622C38.9933 44.1438 39.6856 43.4887 40.0131 42.0939C40.0152 42.0857 40.0173 42.0774 40.0183 42.0692L44.9072 19.0327C45.1988 17.8059 45.035 16.8891 44.6363 16.3534C44.1738 15.7302 43.2992 15.3068 41.8117 15.7085C41.7716 15.7188 41.7314 15.7322 41.6933 15.7477L12.9778 26.8843C12.9335 26.9018 12.8902 26.9224 12.848 26.944C11.4872 27.6744 11.1843 28.5098 11.1802 29.0506C11.1751 29.7789 11.686 30.4835 12.5534 30.8317C12.5791 30.842 12.6049 30.8523 12.6316 30.8605L19.725 33.1422ZM42.7038 17.9181C42.6925 18.085 42.6698 18.3116 42.6245 18.5022C42.6214 18.5125 42.6193 18.5228 42.6173 18.5331L37.7294 41.5665C37.6882 41.7365 37.6068 41.9312 37.5522 42.0527C37.4224 41.9888 37.2154 41.8807 37.066 41.7663C37.0598 41.7622 37.0547 41.7581 37.0485 41.754L25.4267 33.2071C25.0837 32.9547 24.6294 32.9084 24.2421 33.0866C23.8548 33.2658 23.5952 33.6408 23.5643 34.0662L23.3531 36.9681L21.7853 31.87C21.673 31.5043 21.3887 31.2159 21.024 31.0985L14.2314 28.9126L42.4741 17.9583C42.5503 17.9408 42.6307 17.9274 42.7038 17.9181Z" fill="black"/>
<path fill-rule="evenodd" clip-rule="evenodd" d="M24.754 42.7415L29.8489 38.3418C30.3382 37.9195 30.3928 37.1788 29.9705 36.6895C29.5471 36.2002 28.8064 36.1456 28.3171 36.568L23.2232 40.9676C22.7329 41.3899 22.6793 42.1306 23.1016 42.6199C23.524 43.1102 24.2646 43.1638 24.754 42.7415Z" fill="black"/>
</g>
<defs>
<clipPath id="clip0_16_305">
<rect width="60" height="60" fill="white"/>
</clipPath>
</defs>
</svg>
