<svg width="50" height="50" viewBox="0 0 50 50" fill="none" xmlns="http://www.w3.org/2000/svg">
<path d="M49.6819 25.893C49.0118 24.6866 45.1119 17.6669 44.7991 17.1039C44.6268 16.7938 44.3001 16.6016 43.9454 16.6016H35.4519L25.879 10.2195V6.83594H32.7149C33.2543 6.83594 33.6915 6.39863 33.6915 5.85938V0.976562C33.6915 0.437305 33.2543 0 32.7149 0H24.9024C24.363 0 23.9258 0.437305 23.9258 0.976562C23.9258 1.89883 23.9258 9.29453 23.9258 10.2195L14.3529 16.6016H5.85943C5.50474 16.6016 5.17798 16.7938 5.00572 17.1039C4.98257 17.1456 0.567238 25.0932 0.122902 25.893C-0.045164 26.1955 -0.0405742 26.5643 0.134914 26.8625C0.310402 27.1607 0.630617 27.3438 0.976613 27.3438H1.95318V31.9834C1.95318 32.5227 2.39038 32.96 2.92974 32.96C3.46909 32.96 3.9063 32.5227 3.9063 31.9834V27.3438H13.6719V47.8516H3.9063V35.8896C3.9063 35.3504 3.46909 34.9131 2.92974 34.9131C2.39038 34.9131 1.95318 35.3504 1.95318 35.8896V48.8281C1.95318 49.3674 2.39038 49.8047 2.92974 49.8047C3.92896 49.8047 45.6627 49.8047 46.8751 49.8047C47.4144 49.8047 47.8516 49.3674 47.8516 48.8281V34.8057C47.8516 34.2664 47.4144 33.8291 46.8751 33.8291C46.3357 33.8291 45.8985 34.2664 45.8985 34.8057V47.8516H36.1329V27.3438H45.8985V30.8994C45.8985 31.4387 46.3357 31.876 46.8751 31.876C47.4144 31.876 47.8516 31.4387 47.8516 30.8994V27.3438H48.8282C49.5716 27.3438 50.0431 26.5433 49.6819 25.893ZM44.9984 21.4844H36.1329V18.5547H43.3708L44.9984 21.4844ZM25.879 1.95312H31.7383V4.88281H25.879V1.95312ZM6.43413 18.5547H13.672V21.4844H4.8065L6.43413 18.5547ZM2.63628 25.3906L3.72134 23.4375H13.6719V25.3906C12.3215 25.3906 4.30484 25.3906 2.63628 25.3906ZM32.2266 47.8516V44.4336C32.2266 43.8943 31.7894 43.457 31.2501 43.457C30.7107 43.457 30.2735 43.8943 30.2735 44.4336V47.8516H19.5313V38.5742C19.5313 35.6126 21.9408 33.2031 24.9024 33.2031C27.8704 33.2031 30.2735 35.6059 30.2735 38.5742V40.5273C30.2735 41.0666 30.7107 41.5039 31.2501 41.5039C31.7894 41.5039 32.2266 41.0666 32.2266 40.5273V38.5742C32.2266 34.5268 28.9504 31.25 24.9024 31.25C20.8638 31.25 17.5782 34.5356 17.5782 38.5742V47.8516H15.6251V18.1008L24.9024 11.9159L34.1797 18.1008V47.8516H32.2266ZM36.1329 25.3906V23.4375H46.0835L47.1685 25.3906C45.4744 25.3906 37.483 25.3906 36.1329 25.3906Z" fill="black"/>
<path d="M10.7422 36.1328C11.2816 36.1328 11.7188 35.6955 11.7188 35.1562V33.2031C11.7188 31.5877 10.4046 30.2734 8.78912 30.2734C7.17369 30.2734 5.85944 31.5877 5.85944 33.2031V35.1562C5.85944 35.6955 6.29664 36.1328 6.836 36.1328H10.7422ZM7.81256 33.2031C7.81256 32.6646 8.25065 32.2266 8.78912 32.2266C9.3276 32.2266 9.76569 32.6646 9.76569 33.2031V34.1797H7.81256V33.2031Z" fill="black"/>
<path d="M5.85944 43.9453C5.85944 44.4846 6.29664 44.9219 6.836 44.9219H10.7422C11.2816 44.9219 11.7188 44.4846 11.7188 43.9453V41.9922C11.7188 40.3768 10.4046 39.0625 8.78912 39.0625C7.17369 39.0625 5.85944 40.3768 5.85944 41.9922V43.9453ZM7.81256 41.9922C7.81256 41.4537 8.25065 41.0156 8.78912 41.0156C9.3276 41.0156 9.76569 41.4537 9.76569 41.9922V42.9688H7.81256V41.9922Z" fill="black"/>
<path d="M43.9454 33.2031C43.9454 31.5877 42.6311 30.2734 41.0157 30.2734C39.4003 30.2734 38.086 31.5877 38.086 33.2031V35.1562C38.086 35.6955 38.5232 36.1328 39.0626 36.1328H42.9688C43.5082 36.1328 43.9454 35.6955 43.9454 35.1562V33.2031ZM41.9922 34.1797H40.0391V33.2031C40.0391 32.6646 40.4772 32.2266 41.0157 32.2266C41.5542 32.2266 41.9922 32.6646 41.9922 33.2031V34.1797Z" fill="black"/>
<path d="M41.0157 39.0625C39.4003 39.0625 38.086 40.3768 38.086 41.9922V43.9453C38.086 44.4846 38.5232 44.9219 39.0626 44.9219H42.9688C43.5082 44.9219 43.9454 44.4846 43.9454 43.9453V41.9922C43.9454 40.3768 42.6311 39.0625 41.0157 39.0625ZM41.9922 42.9688H40.0391V41.9922C40.0391 41.4537 40.4772 41.0156 41.0157 41.0156C41.5542 41.0156 41.9922 41.4537 41.9922 41.9922V42.9688Z" fill="black"/>
<path d="M24.9024 15.625C21.2676 15.625 18.3106 18.582 18.3106 22.2168C18.3106 25.8516 21.2676 28.8086 24.9024 28.8086C28.5372 28.8086 31.4942 25.8516 31.4942 22.2168C31.4942 18.582 28.5372 15.625 24.9024 15.625ZM24.9024 26.8555C22.3447 26.8555 20.2637 24.7745 20.2637 22.2168C20.2637 19.6591 22.3447 17.5781 24.9024 17.5781C27.4601 17.5781 29.5411 19.6591 29.5411 22.2168C29.5411 24.7745 27.4602 26.8555 24.9024 26.8555Z" fill="black"/>
<path d="M26.8555 21.4844H25.879V20.5078C25.879 19.9686 25.4418 19.5312 24.9024 19.5312C24.363 19.5312 23.9258 19.9686 23.9258 20.5078V22.4609C23.9258 23.0002 24.363 23.4375 24.9024 23.4375H26.8555C27.3949 23.4375 27.8321 23.0002 27.8321 22.4609C27.8321 21.9217 27.3949 21.4844 26.8555 21.4844Z" fill="black"/>
</svg>
