<svg width="40" height="40" viewBox="0 0 40 40" fill="none" xmlns="http://www.w3.org/2000/svg">
<path d="M39.9004 20.7956C39.3622 19.8267 36.2302 14.1889 35.979 13.7368C35.8406 13.4878 35.5782 13.3333 35.2933 13.3333H28.4721L20.7839 8.20769V5.4902H26.2739C26.7071 5.4902 27.0582 5.13898 27.0582 4.70588V0.784314C27.0582 0.351216 26.7071 0 26.2739 0H19.9996C19.5664 0 19.2153 0.351216 19.2153 0.784314C19.2153 1.52502 19.2153 7.46478 19.2153 8.20769L11.5271 13.3333H4.70581C4.42096 13.3333 4.15853 13.4878 4.02018 13.7368C4.00159 13.7703 0.455559 20.1533 0.0987051 20.7956C-0.0362721 21.0386 -0.0325859 21.3347 0.108352 21.5743C0.24929 21.8138 0.50646 21.9608 0.784336 21.9608H1.56863V25.6871C1.56863 26.1202 1.91976 26.4714 2.35293 26.4714C2.78609 26.4714 3.13722 26.1202 3.13722 25.6871V21.9608H10.9802V38.4314H3.13722V28.8243C3.13722 28.3912 2.78609 28.04 2.35293 28.04C1.91976 28.04 1.56863 28.3912 1.56863 28.8243V39.2157C1.56863 39.6488 1.91976 40 2.35293 40C3.15542 40 36.6725 40 37.6462 40C38.0794 40 38.4305 39.6488 38.4305 39.2157V27.9537C38.4305 27.5206 38.0794 27.1694 37.6462 27.1694C37.213 27.1694 36.8619 27.5206 36.8619 27.9537V38.4314H29.019V21.9608H36.8619V24.8165C36.8619 25.2496 37.213 25.6008 37.6462 25.6008C38.0794 25.6008 38.4305 25.2496 38.4305 24.8165V21.9608H39.2148C39.8119 21.9608 40.1905 21.3179 39.9004 20.7956ZM36.139 17.2549H29.019V14.902H34.8318L36.139 17.2549ZM20.7839 1.56863H25.4896V3.92157H20.7839V1.56863ZM5.16737 14.902H10.9803V17.2549H3.86018L5.16737 14.902ZM2.11725 20.3922L2.98868 18.8235H10.9802V20.3922C9.89565 20.3922 3.45729 20.3922 2.11725 20.3922ZM25.8818 38.4314V35.6863C25.8818 35.2532 25.5307 34.902 25.0975 34.902C24.6643 34.902 24.3132 35.2532 24.3132 35.6863V38.4314H15.6859V30.9804C15.6859 28.6018 17.621 26.6667 19.9996 26.6667C22.3832 26.6667 24.3132 28.5964 24.3132 30.9804V32.549C24.3132 32.9821 24.6643 33.3333 25.0975 33.3333C25.5307 33.3333 25.8818 32.9821 25.8818 32.549V30.9804C25.8818 27.7297 23.2506 25.098 19.9996 25.098C16.7561 25.098 14.1174 27.7369 14.1174 30.9804V38.4314H12.5488V14.5374L19.9996 9.57012L27.4504 14.5374V38.4314H25.8818ZM29.019 20.3922V18.8235H37.0105L37.8819 20.3922C36.5213 20.3922 30.1032 20.3922 29.019 20.3922Z" fill="white"/>
<path d="M8.62729 29.0198C9.06045 29.0198 9.41158 28.6686 9.41158 28.2355V26.6669C9.41158 25.3695 8.35608 24.314 7.0587 24.314C5.76132 24.314 4.70581 25.3695 4.70581 26.6669V28.2355C4.70581 28.6686 5.05694 29.0198 5.49011 29.0198H8.62729ZM6.2744 26.6669C6.2744 26.2344 6.62624 25.8826 7.0587 25.8826C7.49116 25.8826 7.84299 26.2344 7.84299 26.6669V27.4512H6.2744V26.6669Z" fill="white"/>
<path d="M4.70581 35.2941C4.70581 35.7272 5.05694 36.0784 5.49011 36.0784H8.62729C9.06045 36.0784 9.41158 35.7272 9.41158 35.2941V33.7255C9.41158 32.4281 8.35608 31.3726 7.0587 31.3726C5.76132 31.3726 4.70581 32.4281 4.70581 33.7255V35.2941ZM6.2744 33.7255C6.2744 33.293 6.62624 32.9412 7.0587 32.9412C7.49116 32.9412 7.84299 33.293 7.84299 33.7255V34.5098H6.2744V33.7255Z" fill="white"/>
<path d="M35.2933 26.6669C35.2933 25.3695 34.2378 24.314 32.9404 24.314C31.6431 24.314 30.5876 25.3695 30.5876 26.6669V28.2355C30.5876 28.6686 30.9387 29.0198 31.3718 29.0198H34.509C34.9422 29.0198 35.2933 28.6686 35.2933 28.2355V26.6669ZM33.7247 27.4512H32.1561V26.6669C32.1561 26.2344 32.508 25.8826 32.9404 25.8826C33.3729 25.8826 33.7247 26.2344 33.7247 26.6669V27.4512Z" fill="white"/>
<path d="M32.9404 31.3726C31.6431 31.3726 30.5876 32.4281 30.5876 33.7255V35.2941C30.5876 35.7272 30.9387 36.0784 31.3718 36.0784H34.509C34.9422 36.0784 35.2933 35.7272 35.2933 35.2941V33.7255C35.2933 32.4281 34.2378 31.3726 32.9404 31.3726ZM33.7247 34.5098H32.1561V33.7255C32.1561 33.293 32.508 32.9412 32.9404 32.9412C33.3729 32.9412 33.7247 33.293 33.7247 33.7255V34.5098Z" fill="white"/>
<path d="M19.9996 12.5488C17.0804 12.5488 14.7056 14.9237 14.7056 17.8429C14.7056 20.7622 17.0804 23.1371 19.9996 23.1371C22.9187 23.1371 25.2935 20.7622 25.2935 17.8429C25.2935 14.9237 22.9187 12.5488 19.9996 12.5488ZM19.9996 21.5684C17.9454 21.5684 16.2742 19.8971 16.2742 17.8429C16.2742 15.7887 17.9454 14.1175 19.9996 14.1175C22.0537 14.1175 23.725 15.7887 23.725 17.8429C23.725 19.8971 22.0538 21.5684 19.9996 21.5684Z" fill="white"/>
<path d="M21.5682 17.2547H20.7839V16.4703C20.7839 16.0373 20.4327 15.686 19.9996 15.686C19.5664 15.686 19.2153 16.0373 19.2153 16.4703V18.039C19.2153 18.4721 19.5664 18.8233 19.9996 18.8233H21.5682C22.0013 18.8233 22.3525 18.4721 22.3525 18.039C22.3525 17.6059 22.0013 17.2547 21.5682 17.2547Z" fill="white"/>
</svg>
