<svg width="58" height="58" viewBox="0 0 58 58" fill="none" xmlns="http://www.w3.org/2000/svg">
<path d="M28.5035 57.5C23.0035 57.5 17.7535 56 13.2535 53L3.25355 56.25C2.75355 56.5 2.25355 56.25 2.00355 56C1.75355 55.75 1.50355 55.25 1.75355 54.75L5.00355 45.25C1.75355 40.5 0.0035466 34.75 0.0035466 29C-0.246453 13 12.7535 0 28.5035 0C44.2535 0 57.2535 13 57.2535 28.75C57.2535 44.5 44.2535 57.5 28.5035 57.5ZM13.5035 50.5C13.7535 50.5 14.0035 50.5 14.2535 50.75C18.5035 53.5 23.5035 55 28.7535 55C43.2535 55 55.0035 43.25 55.0035 28.75C55.0035 14.25 43.0035 2.5 28.5035 2.5C14.0035 2.5 2.25355 14.25 2.25355 28.75C2.25355 34.25 4.00355 39.75 7.25355 44.25C7.50355 44.5 7.50355 45 7.50355 45.5L4.75355 53.5L13.0035 51C13.2535 50.5 13.2535 50.5 13.5035 50.5ZM37.5035 45.5C35.5035 45.5 33.0035 44.75 29.0035 43.25C22.2535 40.5 17.2535 34.25 15.0035 31L14.7535 30.75C13.5035 28.75 11.2535 25.25 11.2535 21.5C11.2535 17.25 13.5035 15 14.2535 14C15.2535 13 16.5035 12.5 18.0035 12.5C18.2535 12.5 18.5035 12.5 18.7535 12.5C20.2535 12.5 21.0035 13 21.7535 14.75L22.5035 16.25C23.2535 18 24.2535 20.25 24.2535 20.5C24.7535 21.5 24.7535 22.25 24.2535 23C24.0035 23.5 23.7535 24 23.2535 24.5C23.0035 24.75 22.7535 25 22.5035 25.25C22.2535 25.5 22.0035 25.75 21.7535 26C22.2535 26.25 22.0035 26.25 22.0035 26.25C23.2535 28.25 24.7535 30 26.2535 31.5C29.0035 33.75 31.0035 34.75 32.0035 35.25H32.2535C32.5035 35.25 32.5035 35.5 32.7535 35.25C33.2535 34.75 34.0035 33.75 34.5035 32.75L34.7535 32.5C35.5035 31.5 36.5035 31.25 37.0035 31.25C37.2535 31.25 37.7535 31.25 38.2535 31.5C39.0035 31.75 41.7535 33 43.7535 34.25L44.2535 34.5C45.0035 34.75 45.5035 35 45.7535 35.75C46.2535 36.75 46.0035 39 45.5035 40.5C44.7535 42.75 41.7535 44.75 39.2535 45.25C38.7535 45.25 38.2535 45.5 37.5035 45.5ZM18.2535 15C17.5035 15 16.7535 15.25 16.2535 15.5C15.5035 16.25 13.7535 18 13.7535 21.25C13.7535 24.25 15.7535 27.5 16.7535 28.75L17.0035 29C20.7535 34.5 25.2535 38.5 30.0035 40.5C33.5035 42 36.0035 42.75 37.5035 42.75C38.0035 42.75 38.5035 42.75 38.7535 42.5C40.5035 42 42.7535 40.75 43.2535 39.5C43.7535 38.25 43.7535 37.25 43.7535 36.75C43.5035 36.75 43.5035 36.5 43.2535 36.5L42.7535 36.25C40.0035 34.75 37.7535 33.75 37.5035 33.75C37.2535 33.75 37.2535 33.5 37.0035 34L36.7535 34.25C36.0035 35.25 35.2535 36.25 34.7535 37C34.0035 37.75 32.5035 38 31.5035 37.5H31.2535C30.2535 37 27.7535 36 24.7535 33.5C23.0035 32 21.5035 30 20.0035 27.75C19.0035 26.25 20.0035 25 20.5035 24.5C20.5035 24.25 20.7535 23.75 21.0035 23.5C21.2535 23.25 21.2535 23.25 21.5035 23C22.0035 22.5 22.0035 22.5 22.2535 22C22.2535 22 22.2535 21.75 22.2535 21.5C22.0035 21.5 21.0035 19 20.2535 17.25L19.7535 15.75C19.5035 15.25 19.2535 15 19.2535 15H19.0035C18.5035 15 18.2535 15 18.2535 15Z" fill="black"/>
</svg>
